<svg width="22" height="22" viewBox="0 0 22 22" fill="none" xmlns="http://www.w3.org/2000/svg">
<path d="M2.75 16.5002L2 16.5002L2.75 16.5002ZM2.75 5.50016L3.5 5.50016L2.75 5.50016ZM6.41667 1.8335L6.41667 1.0835L6.41667 1.8335ZM15.5833 1.8335L15.5833 1.0835L15.5833 1.8335ZM19.25 5.50016L18.5 5.50016V5.50016H19.25ZM19.25 11.3147L20 11.3147V11.3147H19.25ZM10.3979 20.1668L10.3979 19.4168H10.3979V20.1668ZM6.41667 20.1668L6.41667 20.9168H6.41667V20.1668ZM18.1761 13.9074L17.6457 13.3771L17.6457 13.3771L18.1761 13.9074ZM12.9906 19.0929L13.5209 19.6232L13.5209 19.6232L12.9906 19.0929ZM11.9167 16.5002L12.6667 16.5002L12.6667 16.5002L11.9167 16.5002ZM15.5833 12.8335L15.5833 12.0835L15.5833 12.0835L15.5833 12.8335ZM14.2803 8.78049C14.5732 8.4876 14.5732 8.01273 14.2803 7.71983C13.9874 7.42694 13.5126 7.42694 13.2197 7.71983L13.75 8.25016L14.2803 8.78049ZM12.2964 9.7038L11.766 9.17347L11.766 9.17347L12.2964 9.7038ZM9.70364 9.7038L10.234 9.17347L10.234 9.17347L9.70364 9.7038ZM8.78033 7.71983C8.48744 7.42694 8.01256 7.42694 7.71967 7.71983C7.42678 8.01273 7.42678 8.4876 7.71967 8.78049L8.25 8.25016L8.78033 7.71983ZM10.25 10.0835C10.25 10.4977 10.5858 10.8335 11 10.8335C11.4142 10.8335 11.75 10.4977 11.75 10.0835H11H10.25ZM11.75 5.50016C11.75 5.08595 11.4142 4.75016 11 4.75016C10.5858 4.75016 10.25 5.08595 10.25 5.50016H11H11.75ZM2.75 16.5002L3.5 16.5002L3.5 5.50016L2.75 5.50016L2 5.50016L2 16.5002L2.75 16.5002ZM6.41667 1.8335L6.41667 2.5835L15.5833 2.5835L15.5833 1.8335L15.5833 1.0835L6.41667 1.0835L6.41667 1.8335ZM19.25 5.50016H18.5V11.3147H19.25H20V5.50016H19.25ZM10.3979 20.1668V19.4168H6.41667V20.1668V20.9168H10.3979V20.1668ZM18.1761 13.9074L17.6457 13.3771L12.4603 18.5626L12.9906 19.0929L13.5209 19.6232L18.7064 14.4378L18.1761 13.9074ZM10.3979 20.1668L10.3979 20.9168C11.5693 20.9168 12.6927 20.4515 13.5209 19.6232L12.9906 19.0929L12.4603 18.5626C11.9133 19.1095 11.1714 19.4168 10.3979 19.4168L10.3979 20.1668ZM19.25 11.3147L18.5 11.3147C18.5 12.0883 18.1927 12.8301 17.6457 13.3771L18.1761 13.9074L18.7064 14.4378C19.5347 13.6095 20 12.4861 20 11.3147L19.25 11.3147ZM2.75 5.50016L3.5 5.50016C3.5 3.88933 4.80584 2.5835 6.41667 2.5835L6.41667 1.8335L6.41667 1.0835C3.97741 1.0835 2 3.0609 2 5.50016L2.75 5.50016ZM2.75 16.5002L2 16.5002C2 18.9394 3.97741 20.9168 6.41667 20.9168L6.41667 20.1668L6.41667 19.4168C4.80584 19.4168 3.5 18.111 3.5 16.5002L2.75 16.5002ZM15.5833 1.8335L15.5833 2.5835C17.1942 2.5835 18.5 3.88933 18.5 5.50016L19.25 5.50016L20 5.50016C20 3.06091 18.0226 1.0835 15.5833 1.0835L15.5833 1.8335ZM11.9167 20.1668L12.6667 20.1668L12.6667 16.5002L11.9167 16.5002L11.1667 16.5002L11.1667 20.1668L11.9167 20.1668ZM15.5833 12.8335L15.5833 13.5835L19.25 13.5835L19.25 12.8335L19.25 12.0835L15.5833 12.0835L15.5833 12.8335ZM11.9167 16.5002L12.6667 16.5002C12.6667 14.8893 13.9725 13.5835 15.5833 13.5835L15.5833 12.8335L15.5833 12.0835C13.1441 12.0835 11.1667 14.0609 11.1667 16.5002L11.9167 16.5002ZM13.75 8.25016L13.2197 7.71983L11.766 9.17347L12.2964 9.7038L12.8267 10.2341L14.2803 8.78049L13.75 8.25016ZM9.70364 9.7038L10.234 9.17347L8.78033 7.71983L8.25 8.25016L7.71967 8.78049L9.17331 10.2341L9.70364 9.7038ZM11 10.0835H11.75V5.50016H11H10.25V10.0835H11ZM12.2964 9.7038L11.766 9.17347C11.343 9.59654 10.657 9.59654 10.234 9.17347L9.70364 9.7038L9.17331 10.2341C10.1822 11.243 11.8178 11.243 12.8267 10.2341L12.2964 9.7038Z" fill="white"/>
</svg>
