<svg width="15" height="15" viewBox="0 0 15 15" fill="none" xmlns="http://www.w3.org/2000/svg">
<g clip-path="url(#clip0_3726_15861)">
<path d="M5 3.75V3.125C5 2.08947 5.83947 1.25 6.875 1.25H8.125C9.16053 1.25 10 2.08947 10 3.125V3.75M1.25 6.46718C1.25 6.46718 3.19878 7.76527 6.23604 8.06929M13.75 6.46718C13.75 6.46718 11.8012 7.76527 8.76396 8.06929M3.75 13.75H11.25C12.6307 13.75 13.75 12.6307 13.75 11.25V6.25C13.75 4.86929 12.6307 3.75 11.25 3.75H3.75C2.36929 3.75 1.25 4.86929 1.25 6.25V11.25C1.25 12.6307 2.36929 13.75 3.75 13.75Z" stroke="#656565" stroke-linecap="round"/>
<path d="M8.75 7.59998V8.22498C8.75 8.23123 8.75 8.23123 8.75 8.23748C8.75 8.91873 8.74375 9.47498 7.5 9.47498C6.2625 9.47498 6.25 8.92498 6.25 8.24373V7.59998C6.25 6.97498 6.25 6.97498 6.875 6.97498H8.125C8.75 6.97498 8.75 6.97498 8.75 7.59998Z" stroke="#656565" stroke-miterlimit="10" stroke-linecap="round" stroke-linejoin="round"/>
</g>
<defs>
<clipPath id="clip0_3726_15861">
<rect width="15" height="15" fill="white"/>
</clipPath>
</defs>
</svg>
