<svg width="15" height="15" viewBox="0 0 15 15" fill="none" xmlns="http://www.w3.org/2000/svg">
<g clip-path="url(#clip0_3726_15867)">
<ellipse cx="7.5" cy="7.5" rx="2.5" ry="6.25" stroke="#656565"/>
<path d="M13.7476 7.32534C12.6211 8.25099 10.2468 8.88889 7.5 8.88889C4.7532 8.88889 2.37887 8.25099 1.25239 7.32534M13.7476 7.32534C13.6551 3.95432 10.8934 1.25 7.5 1.25C4.10663 1.25 1.34489 3.95432 1.25239 7.32534M13.7476 7.32534C13.7492 7.38336 13.75 7.44159 13.75 7.5C13.75 10.9518 10.9518 13.75 7.5 13.75C4.04822 13.75 1.25 10.9518 1.25 7.5C1.25 7.44159 1.2508 7.38336 1.25239 7.32534" stroke="#656565"/>
</g>
<defs>
<clipPath id="clip0_3726_15867">
<rect width="15" height="15" fill="white"/>
</clipPath>
</defs>
</svg>
