<svg width="15" height="15" viewBox="0 0 15 15" fill="none" xmlns="http://www.w3.org/2000/svg">
<g clip-path="url(#clip0_3726_15879)">
<path d="M4.375 9.375H5C5.34518 9.375 5.625 9.09518 5.625 8.75V8.4375C5.625 7.91973 6.04473 7.5 6.5625 7.5C7.08027 7.5 7.5 7.91973 7.5 8.4375V10.3125C7.5 10.8303 7.91973 11.25 8.4375 11.25C8.95527 11.25 9.375 10.8303 9.375 10.3125V10C9.375 9.65482 9.65482 9.375 10 9.375H10.625M10.1127 13.75H4.88728C3.44432 13.75 2.27456 12.6337 2.27456 11.2567V8.20815C2.27456 7.76551 2.0903 7.34099 1.76231 7.028C1.00238 6.30281 1.10117 5.10128 1.97032 4.49807L5.96327 1.72687C6.87942 1.09104 8.12058 1.09104 9.03673 1.72687L13.0297 4.49807C13.8988 5.10128 13.9976 6.30281 13.2377 7.028C12.9097 7.34099 12.7254 7.76551 12.7254 8.20815V11.2567C12.7254 12.6337 11.5557 13.75 10.1127 13.75Z" stroke="#656565" stroke-linecap="round"/>
</g>
<defs>
<clipPath id="clip0_3726_15879">
<rect width="15" height="15" fill="white"/>
</clipPath>
</defs>
</svg>
