<svg width="15" height="15" viewBox="0 0 15 15" fill="none" xmlns="http://www.w3.org/2000/svg">
<path d="M10 5H5M10 5C11.3807 5 12.5 6.11929 12.5 7.5V11.25C12.5 12.6307 11.3807 13.75 10 13.75H5C3.61929 13.75 2.5 12.6307 2.5 11.25V7.5C2.5 6.11929 3.61929 5 5 5M10 5V3.75C10 2.36929 8.88071 1.25 7.5 1.25C6.11929 1.25 5 2.36929 5 3.75V5M8.75 9.375C8.75 10.0654 8.19036 10.625 7.5 10.625C6.80964 10.625 6.25 10.0654 6.25 9.375C6.25 8.68464 6.80964 8.125 7.5 8.125C8.19036 8.125 8.75 8.68464 8.75 9.375Z" stroke="#656565" stroke-linecap="round" stroke-linejoin="round"/>
</svg>
