<svg width="15" height="15" viewBox="0 0 15 15" fill="none" xmlns="http://www.w3.org/2000/svg">
<g clip-path="url(#clip0_3726_15871)">
<path d="M4.4185 3.88904C3.39244 4.19759 2.29758 4.95058 1.70134 5.40141C1.40961 5.622 1.25 5.96994 1.25 6.33568V12.3791C1.25 12.9125 1.89244 13.2218 2.33517 12.9243C3.09109 12.4163 4.11793 11.8395 5 11.7407C7.07394 11.5086 7.92606 13.9667 10 13.7345C11.167 13.6039 12.5875 12.6363 13.2987 12.0986C13.5904 11.8781 13.75 11.5301 13.75 11.1644V5.12098C13.75 4.58757 13.1076 4.27826 12.6648 4.57577C12.0116 5.01476 11.156 5.50516 10.3664 5.694" stroke="#656565"/>
<path d="M10.625 4.25C10.625 5.90685 9.0625 8.75 7.5 8.75C5.9375 8.75 4.375 5.90685 4.375 4.25C4.375 2.59315 5.77411 1.25 7.5 1.25C9.22589 1.25 10.625 2.59315 10.625 4.25Z" stroke="#656565"/>
<path d="M8.4375 4.0625C8.4375 4.58027 8.01777 5 7.5 5C6.98223 5 6.5625 4.58027 6.5625 4.0625C6.5625 3.54473 6.98223 3.125 7.5 3.125C8.01777 3.125 8.4375 3.54473 8.4375 4.0625Z" stroke="#656565"/>
</g>
<defs>
<clipPath id="clip0_3726_15871">
<rect width="15" height="15" fill="white"/>
</clipPath>
</defs>
</svg>
