<svg width="34" height="34" viewBox="0 0 34 34" fill="none" xmlns="http://www.w3.org/2000/svg">
<rect width="34" height="34" rx="17" fill="white"/>
<path d="M25.25 24.5002C25.6642 24.5002 26 24.836 26 25.2502C26 25.6644 25.6642 26.0002 25.25 26.0002H8.75C8.33579 26.0002 8 25.6644 8 25.2502C8 24.836 8.33579 24.5002 8.75 24.5002H25.25ZM17.8555 11.2405C18.3239 12.1223 19.0131 13.236 19.8887 14.1116C20.7642 14.9871 21.878 15.6763 22.7598 16.1448L17.0596 21.844C16.7059 22.1976 16.247 22.4276 15.752 22.4983L12.3193 22.9885C11.5568 23.0973 10.903 22.4435 11.0117 21.6809L11.502 18.2483C11.5727 17.7532 11.8027 17.2943 12.1562 16.9407L17.8555 11.2405ZM20.4189 8.67699C21.3217 7.77435 22.7857 7.77432 23.6885 8.67699L25.3232 10.3118C26.2259 11.2145 26.2259 12.6785 25.3232 13.5813L23.874 15.0305C23.7603 14.9742 23.6397 14.9132 23.5156 14.8479C22.6803 14.4081 21.689 13.7908 20.9492 13.051C20.2094 12.3112 19.5921 11.32 19.1523 10.4846C19.087 10.3605 19.0261 10.24 18.9697 10.1262L20.4189 8.67699Z" fill="#F37536"/>
</svg>
