<svg width="16" height="16" viewBox="0 0 16 16" fill="none" xmlns="http://www.w3.org/2000/svg">
<path d="M13.3334 11.3337C13.3334 12.4382 12.4379 13.3337 11.3334 13.3337C10.2288 13.3337 9.33335 12.4382 9.33335 11.3337C9.33335 10.2291 10.2288 9.33366 11.3334 9.33366C12.4379 9.33366 13.3334 10.2291 13.3334 11.3337Z" stroke="#28303F"/>
<path d="M9.33335 4.00033C9.33335 3.26395 9.93031 2.66699 10.6667 2.66699H12C12.7364 2.66699 13.3334 3.26395 13.3334 4.00033V5.33366C13.3334 6.07004 12.7364 6.66699 12 6.66699H10.6667C9.93031 6.66699 9.33335 6.07004 9.33335 5.33366V4.00033Z" stroke="#28303F"/>
<path d="M2.66669 4.00033C2.66669 3.26395 3.26364 2.66699 4.00002 2.66699H5.33335C6.06973 2.66699 6.66669 3.26395 6.66669 4.00033V5.33366C6.66669 6.07004 6.06973 6.66699 5.33335 6.66699H4.00002C3.26364 6.66699 2.66669 6.07004 2.66669 5.33366V4.00033Z" stroke="#28303F"/>
<path d="M2.66669 10.667C2.66669 9.93061 3.26364 9.33366 4.00002 9.33366H5.33335C6.06973 9.33366 6.66669 9.93061 6.66669 10.667V12.0003C6.66669 12.7367 6.06973 13.3337 5.33335 13.3337H4.00002C3.26364 13.3337 2.66669 12.7367 2.66669 12.0003V10.667Z" stroke="#28303F"/>
</svg>
