<svg width="18" height="16" viewBox="0 0 18 16" fill="none" xmlns="http://www.w3.org/2000/svg">
<rect width="18" height="16" rx="3" fill="#F37536"/>
<path d="M4.33301 8.72949C5.21886 8.72949 5.93732 9.4472 5.9375 10.333C5.9375 11.219 5.21896 11.9375 4.33301 11.9375C3.4472 11.9373 2.72949 11.2189 2.72949 10.333C2.72967 9.44731 3.44731 8.72967 4.33301 8.72949ZM14.833 11.0625C15.0746 11.0625 15.2705 11.2584 15.2705 11.5C15.2705 11.7416 15.0746 11.9375 14.833 11.9375H7.83301C7.59153 11.9373 7.39551 11.7415 7.39551 11.5C7.39551 11.2585 7.59153 11.0627 7.83301 11.0625H14.833ZM11.333 8.72949C11.5746 8.72949 11.7705 8.92537 11.7705 9.16699C11.7703 9.40847 11.5745 9.60449 11.333 9.60449H7.83301C7.59164 9.60432 7.39568 9.40836 7.39551 9.16699C7.39551 8.92548 7.59153 8.72967 7.83301 8.72949H11.333ZM4.33301 4.0625C5.21896 4.0625 5.9375 4.78104 5.9375 5.66699C5.93732 6.5528 5.21886 7.27051 4.33301 7.27051C3.44731 7.27033 2.72967 6.55269 2.72949 5.66699C2.72949 4.78114 3.4472 4.06268 4.33301 4.0625ZM14.833 6.39551C15.0745 6.39551 15.2703 6.59153 15.2705 6.83301C15.2705 7.07463 15.0746 7.27051 14.833 7.27051H7.83301C7.59153 7.27033 7.39551 7.07452 7.39551 6.83301C7.39568 6.59164 7.59164 6.39568 7.83301 6.39551H14.833ZM11.333 4.0625C11.5746 4.0625 11.7705 4.25838 11.7705 4.5C11.7705 4.74162 11.5746 4.9375 11.333 4.9375H7.83301C7.59153 4.93732 7.39551 4.74152 7.39551 4.5C7.39551 4.25848 7.59153 4.06268 7.83301 4.0625H11.333Z" fill="white"/>
</svg>
