<svg width="20" height="20" viewBox="0 0 20 20" fill="none" xmlns="http://www.w3.org/2000/svg">
<path d="M15.1996 7.4794L14.4544 7.56398L14.4544 7.56398L15.1996 7.4794ZM15.5723 10.7628L16.3175 10.6782L16.3175 10.6782L15.5723 10.7628ZM4.42774 10.7628L3.68253 10.6782L3.68253 10.6782L4.42774 10.7628ZM4.8004 7.4794L5.54561 7.56398L4.8004 7.4794ZM3.7065 12.3935L3.13539 11.9074L3.13539 11.9074L3.7065 12.3935ZM16.2935 12.3935L15.7224 12.8797L15.7224 12.8797L16.2935 12.3935ZM11.8916 3.6448H11.1416C11.1416 3.96538 11.3454 4.25052 11.6487 4.35436L11.8916 3.6448ZM8.10839 3.6448L8.35133 4.35436C8.65463 4.25052 8.85839 3.96538 8.85839 3.6448H8.10839ZM13.2023 16.93C13.3477 16.5421 13.1511 16.1098 12.7632 15.9644C12.3753 15.8191 11.9431 16.0157 11.7977 16.4035L12.5 16.6667L13.2023 16.93ZM8.20231 16.4035C8.05695 16.0157 7.62468 15.8191 7.23681 15.9644C6.84894 16.1098 6.65235 16.5421 6.79771 16.93L7.50001 16.6667L8.20231 16.4035ZM14.8143 15.0001V14.2501H5.18569V15.0001V15.7501H14.8143V15.0001ZM15.1996 7.4794L14.4544 7.56398L14.8271 10.8474L15.5723 10.7628L16.3175 10.6782L15.9448 7.39482L15.1996 7.4794ZM4.42774 10.7628L5.17296 10.8474L5.54561 7.56398L4.8004 7.4794L4.05518 7.39482L3.68253 10.6782L4.42774 10.7628ZM3.7065 12.3935L4.27761 12.8797C4.77398 12.2965 5.08817 11.5944 5.17296 10.8474L4.42774 10.7628L3.68253 10.6782C3.63308 11.1139 3.44844 11.5396 3.13539 11.9074L3.7065 12.3935ZM15.5723 10.7628L14.8271 10.8474C14.9119 11.5944 15.226 12.2965 15.7224 12.8797L16.2935 12.3935L16.8646 11.9074C16.5516 11.5396 16.3669 11.1139 16.3175 10.6782L15.5723 10.7628ZM5.18569 15.0001V14.2501C4.68301 14.2501 4.33933 14.0028 4.18419 13.7294C4.03645 13.469 4.03727 13.162 4.27761 12.8797L3.7065 12.3935L3.13539 11.9074C2.46154 12.699 2.44013 13.6953 2.87962 14.4697C3.3117 15.2311 4.16471 15.7501 5.18569 15.7501V15.0001ZM14.8143 15.0001V15.7501C15.8353 15.7501 16.6883 15.2311 17.1204 14.4697C17.5599 13.6953 17.5385 12.699 16.8646 11.9074L16.2935 12.3935L15.7224 12.8797C15.9628 13.162 15.9636 13.469 15.8158 13.7294C15.6607 14.0028 15.317 14.2501 14.8143 14.2501V15.0001ZM11.8916 3.6448H12.6416V3.55837H11.8916H11.1416V3.6448H11.8916ZM15.1996 7.4794L15.9448 7.39482C15.7058 5.28857 14.1452 3.62364 12.1346 2.93524L11.8916 3.6448L11.6487 4.35436C13.2087 4.88851 14.2916 6.12932 14.4544 7.56398L15.1996 7.4794ZM8.10839 3.6448H8.85839V3.55837H8.10839H7.35839V3.6448H8.10839ZM4.8004 7.4794L5.54561 7.56398C5.70844 6.12932 6.79127 4.88851 8.35133 4.35436L8.10839 3.6448L7.86544 2.93524C5.85484 3.62364 4.29424 5.28857 4.05518 7.39482L4.8004 7.4794ZM10 1.66675V2.41675C10.6305 2.41675 11.1416 2.92787 11.1416 3.55837H11.8916H12.6416C12.6416 2.09944 11.4589 0.916748 10 0.916748V1.66675ZM10 1.66675V0.916748C8.54108 0.916748 7.35839 2.09944 7.35839 3.55837H8.10839H8.85839C8.85839 2.92787 9.36951 2.41675 10 2.41675V1.66675ZM12.5 16.6667L11.7977 16.4035C11.5478 17.0704 10.8538 17.5834 10 17.5834V18.3334V19.0834C11.4546 19.0834 12.7244 18.205 13.2023 16.93L12.5 16.6667ZM10 18.3334V17.5834C9.14627 17.5834 8.45224 17.0704 8.20231 16.4035L7.50001 16.6667L6.79771 16.93C7.27558 18.205 8.54537 19.0834 10 19.0834V18.3334Z" fill="#28303F"/>
</svg>
