<svg width="24" height="24" viewBox="0 0 24 24" fill="none" xmlns="http://www.w3.org/2000/svg">
<path d="M21.9453 7.75C21.9809 7.9648 22 8.18328 22 8.40332V18C22 20.2091 20.2091 22 18 22H6C3.79086 22 2 20.2091 2 18V8.40332C2 8.18328 2.01913 7.9648 2.05469 7.75H21.9453ZM10 9.25C9.58579 9.25 9.25 9.58579 9.25 10C9.25 10.4142 9.58579 10.75 10 10.75H14C14.4142 10.75 14.75 10.4142 14.75 10C14.75 9.58579 14.4142 9.25 14 9.25H10ZM16.0771 2C17.2923 2 18.4421 2.55215 19.2012 3.50098L21.123 5.9043C21.2117 6.01507 21.2923 6.13139 21.3682 6.25H2.63184C2.70766 6.13139 2.78834 6.01507 2.87695 5.9043L4.79883 3.50098C5.55792 2.55215 6.70774 2 7.92285 2H16.0771Z" fill="#28303F"/>
</svg>
