<svg width="20" height="21" viewBox="0 0 20 21" fill="none" xmlns="http://www.w3.org/2000/svg">
<path d="M8.36068 3.2265C9.03125 1.81382 10.9688 1.81382 11.6393 3.2265L12.7982 5.66797C13.0645 6.22895 13.5793 6.61777 14.1747 6.70773L16.7661 7.09924C18.2656 7.32577 18.8643 9.24161 17.7793 10.3412L15.9041 12.2417C15.4732 12.6783 15.2766 13.3074 15.3783 13.924L15.821 16.6074C16.0772 18.1601 14.5097 19.3442 13.1685 18.6111L10.8507 17.3442C10.3181 17.0531 9.68188 17.0531 9.14932 17.3442L6.83147 18.6111C5.49033 19.3442 3.92286 18.1601 4.17899 16.6075L4.62166 13.924C4.72337 13.3074 4.52676 12.6783 4.09591 12.2417L2.22073 10.3412C1.13573 9.24161 1.73445 7.32577 3.23389 7.09924L5.82532 6.70773C6.42075 6.61777 6.93548 6.22895 7.20176 5.66797L8.36068 3.2265Z" stroke="#F37536" stroke-width="1.5" stroke-linejoin="round"/>
</svg>
