<svg width="24" height="24" viewBox="0 0 24 24" fill="none" xmlns="http://www.w3.org/2000/svg">
<path d="M15.3341 12.0557C16.1779 12.937 17.33 13.5 18.6671 13.5C19.1351 13.5 19.5814 13.4299 20.0001 13.3008V18C20.0001 20.2091 18.2093 22 16.0001 22H8.00014C5.79114 21.9999 4.00019 20.209 4.00014 18V13.3008C4.41901 13.43 4.866 13.5 5.33413 13.5C6.67111 13.4999 7.82339 12.9369 8.66714 12.0557C9.51089 12.9369 10.6632 13.4999 12.0001 13.5C13.3373 13.5 14.4903 12.937 15.3341 12.0557ZM15.6535 16.6318C15.45 16.271 14.9928 16.1433 14.632 16.3467C13.4947 16.9878 12.7193 17.2486 12.0001 17.25C11.2823 17.2514 10.5074 16.994 9.37124 16.3477C9.01128 16.1429 8.55365 16.269 8.34878 16.6289C8.14404 16.9888 8.26935 17.4464 8.62905 17.6514C9.84898 18.3454 10.8981 18.7521 12.0031 18.75C13.1067 18.7479 14.1533 18.3383 15.3683 17.6533C15.7291 17.4499 15.8567 16.9926 15.6535 16.6318ZM16.7687 2C18.5859 2 20.2206 3.24452 20.8957 5.14258L21.6535 7.27441C21.8829 7.91961 22.0414 8.6104 21.8742 9.27441C21.4778 10.8473 20.1922 11.9999 18.6671 12C16.8262 12 15.3341 10.3211 15.3341 8.25C15.3341 10.3211 13.8411 12 12.0001 12C10.1593 11.9999 8.66714 10.321 8.66714 8.25C8.66714 10.3209 7.17487 11.9997 5.33413 12C3.80903 12 2.52247 10.8473 2.12612 9.27441C1.95897 8.61043 2.11743 7.91957 2.34682 7.27441L3.10464 5.14258C3.77965 3.24445 5.41434 2.00001 7.23159 2H16.7687Z" fill="#28303F"/>
</svg>
