<svg width="24" height="24" viewBox="0 0 24 24" fill="none" xmlns="http://www.w3.org/2000/svg">
<path d="M2.6949 4.09864C4.06198 3.73811 5.48322 4.53307 5.85798 5.90137L9.11872 17.4336C9.55789 17.5355 9.94966 17.7946 10.2095 18.1641L21.8004 14.9619C22.1995 14.8518 22.612 15.0862 22.7222 15.4854C22.8325 15.8845 22.5989 16.2978 22.1998 16.4082L10.4761 19.6465C10.3151 20.2551 9.83576 20.7641 9.17439 20.9385C8.19495 21.1968 7.1878 20.6241 6.92536 19.6602C6.7208 18.9083 7.02977 18.14 7.64021 17.7158L4.41169 6.29883C4.25996 5.74156 3.66822 5.39408 3.07771 5.54981L2.19099 5.78321C1.79048 5.88882 1.3806 5.64954 1.27497 5.24903C1.16947 4.84867 1.40792 4.43878 1.80818 4.33301L2.6949 4.09864ZM16.6627 3.0625C17.6421 2.80421 18.6483 3.3759 18.9107 4.33985L20.8121 11.3213C21.0745 12.2853 20.4927 13.2759 19.5133 13.5342L12.4195 15.4053C11.4404 15.6632 10.434 15.0915 10.1715 14.1279L8.27107 7.14551C8.00876 6.18161 8.58955 5.1909 9.56892 4.93262L16.6627 3.0625ZM15.441 6.19043C15.3354 5.79 14.9244 5.55075 14.524 5.65625L12.7506 6.12403C12.3501 6.22968 12.1108 6.64052 12.2164 7.04102C12.3222 7.44128 12.733 7.68078 13.1334 7.5752L14.9068 7.10742C15.3071 7.00173 15.5464 6.59079 15.441 6.19043Z" fill="#28303F"/>
</svg>
