<svg width="18" height="18" viewBox="0 0 18 18" fill="none" xmlns="http://www.w3.org/2000/svg">
<path d="M15 2.25C15.8284 2.25 16.5 2.92157 16.5 3.75V14.25C16.5 15.0784 15.8284 15.75 15 15.75C14.1716 15.75 13.5 15.0784 13.5 14.25V3.75C13.5 2.92157 14.1716 2.25 15 2.25Z" stroke="#F37536" stroke-width="1.5"/>
<path d="M3 8.25C3.82843 8.25 4.5 8.92157 4.5 9.75L4.5 14.25C4.5 15.0784 3.82843 15.75 3 15.75C2.17157 15.75 1.5 15.0784 1.5 14.25L1.5 9.75C1.5 8.92157 2.17157 8.25 3 8.25Z" stroke="#F37536" stroke-width="1.5"/>
<path d="M9 5.25C9.82843 5.25 10.5 5.92157 10.5 6.75V14.25C10.5 15.0784 9.82843 15.75 9 15.75C8.17157 15.75 7.5 15.0784 7.5 14.25L7.5 6.75C7.5 5.92157 8.17157 5.25 9 5.25Z" stroke="#F37536" stroke-width="1.5"/>
</svg>
