<svg width="18" height="18" viewBox="0 0 18 18" fill="none" xmlns="http://www.w3.org/2000/svg">
<g clip-path="url(#clip0_3466_15865)">
<path d="M11.25 10.5L6.75 10.5" stroke="#F37536" stroke-width="1.5" stroke-linecap="round" stroke-linejoin="round"/>
<path d="M9 12.75L9 8.25" stroke="#F37536" stroke-width="1.5" stroke-linecap="round" stroke-linejoin="round"/>
<path d="M16.5 12.5V6.65312C16.5 5.74484 16.1909 4.8636 15.6235 4.15434L14.701 3.00122C13.9419 2.05236 12.7926 1.5 11.5775 1.5H6.4225C5.20736 1.5 4.05811 2.05236 3.29902 3.00122L2.37652 4.15434C1.80912 4.8636 1.5 5.74484 1.5 6.65312V12.5C1.5 14.7091 3.29086 16.5 5.5 16.5H12.5C14.7091 16.5 16.5 14.7091 16.5 12.5Z" stroke="#F37536" stroke-width="1.5" stroke-linejoin="round"/>
<path d="M2.25 5.25H15.75" stroke="#F37536" stroke-width="1.5" stroke-linecap="round" stroke-linejoin="round"/>
</g>
<defs>
<clipPath id="clip0_3466_15865">
<rect width="18" height="18" fill="white"/>
</clipPath>
</defs>
</svg>
