<svg width="18" height="18" viewBox="0 0 18 18" fill="none" xmlns="http://www.w3.org/2000/svg">
<path d="M9.63636 3H8.36363C7.66072 3 7.0909 3.53726 7.0909 4.2C7.0909 4.95841 6.27944 5.44058 5.61333 5.07798L5.54567 5.04115C4.93693 4.70978 4.15854 4.90643 3.80709 5.48038L3.17072 6.51961C2.81927 7.09356 3.02784 7.82747 3.63657 8.15884C4.303 8.52162 4.303 9.47838 3.63657 9.84116C3.02783 10.1725 2.81927 10.9064 3.17072 11.4804L3.80709 12.5196C4.15854 13.0936 4.93693 13.2902 5.54567 12.9589L5.61333 12.922C6.27944 12.5594 7.0909 13.0416 7.0909 13.8C7.0909 14.4627 7.66072 15 8.36363 15H9.63636C10.3393 15 10.9091 14.4627 10.9091 13.8C10.9091 13.0416 11.7206 12.5594 12.3867 12.922L12.4543 12.9588C13.0631 13.2902 13.8414 13.0936 14.1929 12.5196L14.8293 11.4804C15.1807 10.9064 14.9722 10.1725 14.3634 9.84115C13.697 9.47838 13.697 8.52162 14.3634 8.15885C14.9722 7.82748 15.1807 7.09357 14.8293 6.51962L14.1929 5.48039C13.8414 4.90644 13.0631 4.70979 12.4543 5.04116L12.3867 5.07798C11.7206 5.44059 10.9091 4.95841 10.9091 4.2C10.9091 3.53726 10.3393 3 9.63636 3Z" stroke="#F37536" stroke-width="1.5" stroke-linejoin="round"/>
<circle cx="9" cy="9" r="2.25" stroke="#F37536" stroke-width="1.5"/>
</svg>
