<svg width="18" height="18" viewBox="0 0 18 18" fill="none" xmlns="http://www.w3.org/2000/svg">
<path d="M13.7258 14.1961L14.1912 13.9205C15.1558 13.3493 15.75 12.2936 15.75 11.1511V6.84894C15.75 5.70645 15.1558 4.65074 14.1912 4.07949L10.5588 1.92844C9.59423 1.35719 8.40577 1.35719 7.44115 1.92844L3.80885 4.07949C2.84423 4.65074 2.25 5.70645 2.25 6.84894V11.1511C2.25 12.2936 2.84423 13.3493 3.80885 13.9205L4.27422 14.1961M13.7258 14.1961L10.5588 16.0716C9.59423 16.6428 8.40577 16.6428 7.44115 16.0716L4.27422 14.1961M13.7258 14.1961C12.7823 12.5236 11.0193 11.3984 8.99999 11.3984C6.98071 11.3984 5.21765 12.5236 4.27422 14.1961" stroke="#F37536" stroke-width="1.5" stroke-linejoin="round"/>
<circle cx="2.25" cy="2.25" r="2.25" transform="matrix(1 0 0 -1 6.75 9)" stroke="#F37536" stroke-width="1.5" stroke-linejoin="round"/>
</svg>
