<svg width="18" height="18" viewBox="0 0 18 18" fill="none" xmlns="http://www.w3.org/2000/svg">
<g clip-path="url(#clip0_3466_15860)">
<path d="M1.5 8.08262C1.5 6.77737 2.13684 5.55421 3.20615 4.80569L6.70615 2.35569C8.08343 1.3916 9.91657 1.3916 11.2938 2.35569L14.7938 4.80569C15.8632 5.55421 16.5 6.77737 16.5 8.08262V14.5C16.5 15.6046 15.6046 16.5 14.5 16.5H3.5C2.39543 16.5 1.5 15.6046 1.5 14.5V8.08262Z" stroke="#F37536" stroke-width="1.5"/>
<path d="M13.5 16.5V9.5C13.5 8.39543 12.6046 7.5 11.5 7.5H6.5C5.39543 7.5 4.5 8.39543 4.5 9.5V16.5" stroke="#F37536" stroke-width="1.5"/>
<path d="M13.5 10.5L4.5 10.5" stroke="#F37536" stroke-width="1.5" stroke-linecap="round" stroke-linejoin="round"/>
<path d="M13.5 13.5L4.5 13.5" stroke="#F37536" stroke-width="1.5" stroke-linecap="round" stroke-linejoin="round"/>
</g>
<defs>
<clipPath id="clip0_3466_15860">
<rect width="18" height="18" fill="white"/>
</clipPath>
</defs>
</svg>
