<svg width="21" height="20" viewBox="0 0 21 20" fill="none" xmlns="http://www.w3.org/2000/svg">
<path d="M2.16669 6.6665V4.99984C2.16669 3.15889 3.65907 1.6665 5.50002 1.6665H7.16669M13.8334 1.6665H15.5C17.341 1.6665 18.8334 3.15889 18.8334 4.99984V6.6665M18.8334 13.2869V14.9998C18.8334 16.8408 17.341 18.3332 15.5 18.3332H13.8334M7.16669 18.3332H5.50002C3.65907 18.3332 2.16669 16.8408 2.16669 14.9998V13.2869M6.33335 9.99984H14.6667M13.8334 7.9165V6.24984M10.5 7.9165V6.24984M7.16669 7.9165V6.24984M10.5 13.7498V12.0832M13.8334 13.7498V12.0832M7.16669 13.7498V12.0832" stroke="#656565" stroke-width="1.5" stroke-linecap="round" stroke-linejoin="round"/>
</svg>
