<svg width="31" height="31" viewBox="0 0 31 31" fill="none" xmlns="http://www.w3.org/2000/svg">
<path d="M18 3H8C5.23858 3 3 5.23858 3 8V23C3 25.7614 5.23858 28 8 28H23C25.7614 28 28 25.7614 28 23V13M24.25 3V10.5M28 6.75L20.5 6.75M28 18L24.3262 15.3549C22.4173 13.9804 19.8084 14.1225 18.0599 15.6961L12.9401 20.3039C11.1916 21.8775 8.58275 22.0196 6.67376 20.6451L3 18M14.25 11.125C14.25 12.8509 12.8509 14.25 11.125 14.25C9.39911 14.25 8 12.8509 8 11.125C8 9.39911 9.39911 8 11.125 8C12.8509 8 14.25 9.39911 14.25 11.125Z" stroke="#656565" stroke-width="1.5" stroke-linecap="round"/>
</svg>
