<svg width="90" height="90" viewBox="0 0 90 90" fill="none" xmlns="http://www.w3.org/2000/svg">
<path d="M78.75 37.5V28.125C78.75 19.8407 72.0343 13.125 63.75 13.125H26.25C17.9657 13.125 11.25 19.8407 11.25 28.125V67.5C11.25 75.7843 17.9657 82.5 26.25 82.5H33.75M30 7.5V18.75M60 33.75H30M52.5 48.75H30M37.5 63.75H30M60 7.5V18.75M45 82.5L56.4779 79.2279C57.0932 79.0524 57.6536 78.7229 58.1061 78.2704L76.9116 59.4649C79.3628 57.0137 79.3628 53.0396 76.9116 50.5884C74.4604 48.1372 70.4863 48.1372 68.0351 50.5884L49.2296 69.3939C48.7771 69.8464 48.4476 70.4068 48.2721 71.0221L45 82.5Z" stroke="#F37536" stroke-width="5" stroke-linecap="round"/>
</svg>
