<svg width="90" height="90" viewBox="0 0 90 90" fill="none" xmlns="http://www.w3.org/2000/svg">
<path d="M52.5 20.3033L47.6516 25.1517C46.1872 26.6161 43.8128 26.6161 42.3483 25.1516L37.5 20.3033M45 7.5V24.0533" stroke="#F37536" stroke-width="5.5" stroke-linecap="round"/>
<path d="M15 37.5V66.2639C15 67.0215 15.428 67.714 16.1056 68.0528L44.1056 82.0528C44.6686 82.3343 45.3314 82.3343 45.8944 82.0528L73.8944 68.0528C74.572 67.714 75 67.0215 75 66.2639V37.5" stroke="#F37536" stroke-width="5.5"/>
<path d="M67.5 18.75L75 22.5L45 37.5L15 22.5L22.5 18.75" stroke="#F37536" stroke-width="5.5" stroke-linecap="round" stroke-linejoin="round"/>
<path d="M75 22.5L45 37.5L52.5 48.75L82.5 33.75L75 22.5Z" stroke="#F37536" stroke-width="5.5" stroke-linecap="round" stroke-linejoin="round"/>
<path d="M15 22.5L45 37.5L37.5 48.75L7.5 33.75L15 22.5Z" stroke="#F37536" stroke-width="5.5" stroke-linecap="round" stroke-linejoin="round"/>
</svg>
